# Tiled2Unity generated file. Do not modify by hand.
# Wavefront file for 'SunnyLandMap_mesh_0001.obj'

# Vertices (Count = 768)
v -416 -544 0
v -432 -544 0
v -432 -528 0
v -416 -528 0
v -432 -544 0
v -448 -544 0
v -448 -528 0
v -432 -528 0
v -448 -544 0
v -464 -544 0
v -464 -528 0
v -448 -528 0
v -464 -544 0
v -480 -544 0
v -480 -528 0
v -464 -528 0
v -480 -544 0
v -496 -544 0
v -496 -528 0
v -480 -528 0
v -496 -544 0
v -512 -544 0
v -512 -528 0
v -496 -528 0
v -1136 -544 0
v -1152 -544 0
v -1152 -528 0
v -1136 -528 0
v -1152 -544 0
v -1168 -544 0
v -1168 -528 0
v -1152 -528 0
v -1168 -544 0
v -1184 -544 0
v -1184 -528 0
v -1168 -528 0
v -1184 -544 0
v -1200 -544 0
v -1200 -528 0
v -1184 -528 0
v -1200 -544 0
v -1216 -544 0
v -1216 -528 0
v -1200 -528 0
v -1216 -544 0
v -1232 -544 0
v -1232 -528 0
v -1216 -528 0
v -1216 -560 0
v -1232 -560 0
v -1232 -544 0
v -1216 -544 0
v -1216 -576 0
v -1232 -576 0
v -1232 -560 0
v -1216 -560 0
v -1216 -592 0
v -1232 -592 0
v -1232 -576 0
v -1216 -576 0
v -1216 -608 0
v -1232 -608 0
v -1232 -592 0
v -1216 -592 0
v -1216 -624 0
v -1232 -624 0
v -1232 -608 0
v -1216 -608 0
v -1216 -640 0
v -1232 -640 0
v -1232 -624 0
v -1216 -624 0
v -1216 -656 0
v -1232 -656 0
v -1232 -640 0
v -1216 -640 0
v -1216 -672 0
v -1232 -672 0
v -1232 -656 0
v -1216 -656 0
v -912 -688 0
v -928 -688 0
v -928 -672 0
v -912 -672 0
v -928 -688 0
v -944 -688 0
v -944 -672 0
v -928 -672 0
v -944 -688 0
v -960 -688 0
v -960 -672 0
v -944 -672 0
v -960 -688 0
v -976 -688 0
v -976 -672 0
v -960 -672 0
v -976 -688 0
v -992 -688 0
v -992 -672 0
v -976 -672 0
v -992 -688 0
v -1008 -688 0
v -1008 -672 0
v -992 -672 0
v -1008 -688 0
v -1024 -688 0
v -1024 -672 0
v -1008 -672 0
v -1024 -688 0
v -1040 -688 0
v -1040 -672 0
v -1024 -672 0
v -1216 -688 0
v -1232 -688 0
v -1232 -672 0
v -1216 -672 0
v -560 -704 0
v -576 -704 0
v -576 -688 0
v -560 -688 0
v -576 -704 0
v -592 -704 0
v -592 -688 0
v -576 -688 0
v -592 -704 0
v -608 -704 0
v -608 -688 0
v -592 -688 0
v -608 -704 0
v -624 -704 0
v -624 -688 0
v -608 -688 0
v -624 -704 0
v -640 -704 0
v -640 -688 0
v -624 -688 0
v -640 -704 0
v -656 -704 0
v -656 -688 0
v -640 -688 0
v -656 -704 0
v -672 -704 0
v -672 -688 0
v -656 -688 0
v -672 -704 0
v -688 -704 0
v -688 -688 0
v -672 -688 0
v -688 -704 0
v -704 -704 0
v -704 -688 0
v -688 -688 0
v -704 -704 0
v -720 -704 0
v -720 -688 0
v -704 -688 0
v -720 -704 0
v -736 -704 0
v -736 -688 0
v -720 -688 0
v -736 -704 0
v -752 -704 0
v -752 -688 0
v -736 -688 0
v -1216 -704 0
v -1232 -704 0
v -1232 -688 0
v -1216 -688 0
v -1216 -720 0
v -1232 -720 0
v -1232 -704 0
v -1216 -704 0
v -1216 -736 0
v -1232 -736 0
v -1232 -720 0
v -1216 -720 0
v -208 -752 0
v -224 -752 0
v -224 -736 0
v -208 -736 0
v -224 -752 0
v -240 -752 0
v -240 -736 0
v -224 -736 0
v -240 -752 0
v -256 -752 0
v -256 -736 0
v -240 -736 0
v -256 -752 0
v -272 -752 0
v -272 -736 0
v -256 -736 0
v -1216 -752 0
v -1232 -752 0
v -1232 -736 0
v -1216 -736 0
v -256 -768 0
v -272 -768 0
v -272 -752 0
v -256 -752 0
v -1216 -768 0
v -1232 -768 0
v -1232 -752 0
v -1216 -752 0
v -256 -784 0
v -272 -784 0
v -272 -768 0
v -256 -768 0
v -1216 -784 0
v -1232 -784 0
v -1232 -768 0
v -1216 -768 0
v -256 -800 0
v -272 -800 0
v -272 -784 0
v -256 -784 0
v -1216 -800 0
v -1232 -800 0
v -1232 -784 0
v -1216 -784 0
v -256 -816 0
v -272 -816 0
v -272 -800 0
v -256 -800 0
v -736 -816 0
v -752 -816 0
v -752 -800 0
v -736 -800 0
v -752 -816 0
v -768 -816 0
v -768 -800 0
v -752 -800 0
v -1216 -816 0
v -1232 -816 0
v -1232 -800 0
v -1216 -800 0
v -256 -832 0
v -272 -832 0
v -272 -816 0
v -256 -816 0
v -432 -832 0
v -448 -832 0
v -448 -816 0
v -432 -816 0
v -448 -832 0
v -464 -832 0
v -464 -816 0
v -448 -816 0
v -752 -832 0
v -768 -832 0
v -768 -816 0
v -752 -816 0
v -768 -832 0
v -784 -832 0
v -784 -816 0
v -768 -816 0
v -784 -832 0
v -800 -832 0
v -800 -816 0
v -784 -816 0
v -1216 -832 0
v -1232 -832 0
v -1232 -816 0
v -1216 -816 0
v -256 -848 0
v -272 -848 0
v -272 -832 0
v -256 -832 0
v -352 -848 0
v -368 -848 0
v -368 -832 0
v -352 -832 0
v -368 -848 0
v -384 -848 0
v -384 -832 0
v -368 -832 0
v -384 -848 0
v -400 -848 0
v -400 -832 0
v -384 -832 0
v -400 -848 0
v -416 -848 0
v -416 -832 0
v -400 -832 0
v -416 -848 0
v -432 -848 0
v -432 -832 0
v -416 -832 0
v -432 -848 0
v -448 -848 0
v -448 -832 0
v -432 -832 0
v -1216 -848 0
v -1232 -848 0
v -1232 -832 0
v -1216 -832 0
v -256 -864 0
v -272 -864 0
v -272 -848 0
v -256 -848 0
v -1008 -864 0
v -1024 -864 0
v -1024 -848 0
v -1008 -848 0
v -1024 -864 0
v -1040 -864 0
v -1040 -848 0
v -1024 -848 0
v -1040 -864 0
v -1056 -864 0
v -1056 -848 0
v -1040 -848 0
v -1056 -864 0
v -1072 -864 0
v -1072 -848 0
v -1056 -848 0
v -1072 -864 0
v -1088 -864 0
v -1088 -848 0
v -1072 -848 0
v -1088 -864 0
v -1104 -864 0
v -1104 -848 0
v -1088 -848 0
v -1104 -864 0
v -1120 -864 0
v -1120 -848 0
v -1104 -848 0
v -1120 -864 0
v -1136 -864 0
v -1136 -848 0
v -1120 -848 0
v -1136 -864 0
v -1152 -864 0
v -1152 -848 0
v -1136 -848 0
v -1152 -864 0
v -1168 -864 0
v -1168 -848 0
v -1152 -848 0
v -1216 -864 0
v -1232 -864 0
v -1232 -848 0
v -1216 -848 0
v -1312 -864 0
v -1328 -864 0
v -1328 -848 0
v -1312 -848 0
v -1328 -864 0
v -1344 -864 0
v -1344 -848 0
v -1328 -848 0
v -1344 -864 0
v -1360 -864 0
v -1360 -848 0
v -1344 -848 0
v -256 -880 0
v -272 -880 0
v -272 -864 0
v -256 -864 0
v -1216 -880 0
v -1232 -880 0
v -1232 -864 0
v -1216 -864 0
v -256 -896 0
v -272 -896 0
v -272 -880 0
v -256 -880 0
v -1216 -896 0
v -1232 -896 0
v -1232 -880 0
v -1216 -880 0
v -224 -912 0
v -240 -912 0
v -240 -896 0
v -224 -896 0
v -240 -912 0
v -256 -912 0
v -256 -896 0
v -240 -896 0
v -256 -912 0
v -272 -912 0
v -272 -896 0
v -256 -896 0
v -272 -912 0
v -288 -912 0
v -288 -896 0
v -272 -896 0
v -288 -912 0
v -304 -912 0
v -304 -896 0
v -288 -896 0
v -1216 -912 0
v -1232 -912 0
v -1232 -896 0
v -1216 -896 0
v -208 -928 0
v -224 -928 0
v -224 -912 0
v -208 -912 0
v -224 -928 0
v -240 -928 0
v -240 -912 0
v -224 -912 0
v -288 -928 0
v -304 -928 0
v -304 -912 0
v -288 -912 0
v -304 -928 0
v -320 -928 0
v -320 -912 0
v -304 -912 0
v -688 -928 0
v -704 -928 0
v -704 -912 0
v -688 -912 0
v -704 -928 0
v -720 -928 0
v -720 -912 0
v -704 -912 0
v -720 -928 0
v -736 -928 0
v -736 -912 0
v -720 -912 0
v -736 -928 0
v -752 -928 0
v -752 -912 0
v -736 -912 0
v -752 -928 0
v -768 -928 0
v -768 -912 0
v -752 -912 0
v -768 -928 0
v -784 -928 0
v -784 -912 0
v -768 -912 0
v -784 -928 0
v -800 -928 0
v -800 -912 0
v -784 -912 0
v -1216 -928 0
v -1232 -928 0
v -1232 -912 0
v -1216 -912 0
v -192 -944 0
v -208 -944 0
v -208 -928 0
v -192 -928 0
v -304 -944 0
v -320 -944 0
v -320 -928 0
v -304 -928 0
v -320 -944 0
v -336 -944 0
v -336 -928 0
v -320 -928 0
v -336 -944 0
v -352 -944 0
v -352 -928 0
v -336 -928 0
v -656 -944 0
v -672 -944 0
v -672 -928 0
v -656 -928 0
v -672 -944 0
v -688 -944 0
v -688 -928 0
v -672 -928 0
v -688 -944 0
v -704 -944 0
v -704 -928 0
v -688 -928 0
v -800 -944 0
v -816 -944 0
v -816 -928 0
v -800 -928 0
v -816 -944 0
v -832 -944 0
v -832 -928 0
v -816 -928 0
v -1216 -944 0
v -1232 -944 0
v -1232 -928 0
v -1216 -928 0
v -176 -960 0
v -192 -960 0
v -192 -944 0
v -176 -944 0
v -336 -960 0
v -352 -960 0
v -352 -944 0
v -336 -944 0
v -352 -960 0
v -368 -960 0
v -368 -944 0
v -352 -944 0
v -368 -960 0
v -384 -960 0
v -384 -944 0
v -368 -944 0
v -384 -960 0
v -400 -960 0
v -400 -944 0
v -384 -944 0
v -400 -960 0
v -416 -960 0
v -416 -944 0
v -400 -944 0
v -416 -960 0
v -432 -960 0
v -432 -944 0
v -416 -944 0
v -432 -960 0
v -448 -960 0
v -448 -944 0
v -432 -944 0
v -448 -960 0
v -464 -960 0
v -464 -944 0
v -448 -944 0
v -464 -960 0
v -480 -960 0
v -480 -944 0
v -464 -944 0
v -480 -960 0
v -496 -960 0
v -496 -944 0
v -480 -944 0
v -496 -960 0
v -512 -960 0
v -512 -944 0
v -496 -944 0
v -512 -960 0
v -528 -960 0
v -528 -944 0
v -512 -944 0
v -528 -960 0
v -544 -960 0
v -544 -944 0
v -528 -944 0
v -640 -960 0
v -656 -960 0
v -656 -944 0
v -640 -944 0
v -656 -960 0
v -672 -960 0
v -672 -944 0
v -656 -944 0
v -832 -960 0
v -848 -960 0
v -848 -944 0
v -832 -944 0
v -848 -960 0
v -864 -960 0
v -864 -944 0
v -848 -944 0
v -1024 -960 0
v -1040 -960 0
v -1040 -944 0
v -1024 -944 0
v -1040 -960 0
v -1056 -960 0
v -1056 -944 0
v -1040 -944 0
v -1056 -960 0
v -1072 -960 0
v -1072 -944 0
v -1056 -944 0
v -1072 -960 0
v -1088 -960 0
v -1088 -944 0
v -1072 -944 0
v -1088 -960 0
v -1104 -960 0
v -1104 -944 0
v -1088 -944 0
v -1104 -960 0
v -1120 -960 0
v -1120 -944 0
v -1104 -944 0
v -1120 -960 0
v -1136 -960 0
v -1136 -944 0
v -1120 -944 0
v -1136 -960 0
v -1152 -960 0
v -1152 -944 0
v -1136 -944 0
v -1152 -960 0
v -1168 -960 0
v -1168 -944 0
v -1152 -944 0
v -1168 -960 0
v -1184 -960 0
v -1184 -944 0
v -1168 -944 0
v -1216 -960 0
v -1232 -960 0
v -1232 -944 0
v -1216 -944 0
v -1360 -960 0
v -1376 -960 0
v -1376 -944 0
v -1360 -944 0
v -1376 -960 0
v -1392 -960 0
v -1392 -944 0
v -1376 -944 0
v -1392 -960 0
v -1408 -960 0
v -1408 -944 0
v -1392 -944 0
v -1408 -960 0
v -1424 -960 0
v -1424 -944 0
v -1408 -944 0
v -1424 -960 0
v -1440 -960 0
v -1440 -944 0
v -1424 -944 0
v -1440 -960 0
v -1456 -960 0
v -1456 -944 0
v -1440 -944 0
v -160 -976 0
v -176 -976 0
v -176 -960 0
v -160 -960 0
v -528 -976 0
v -544 -976 0
v -544 -960 0
v -528 -960 0
v -544 -976 0
v -560 -976 0
v -560 -960 0
v -544 -960 0
v -560 -976 0
v -576 -976 0
v -576 -960 0
v -560 -960 0
v -576 -976 0
v -592 -976 0
v -592 -960 0
v -576 -960 0
v -592 -976 0
v -608 -976 0
v -608 -960 0
v -592 -960 0
v -608 -976 0
v -624 -976 0
v -624 -960 0
v -608 -960 0
v -624 -976 0
v -640 -976 0
v -640 -960 0
v -624 -960 0
v -640 -976 0
v -656 -976 0
v -656 -960 0
v -640 -960 0
v -848 -976 0
v -864 -976 0
v -864 -960 0
v -848 -960 0
v -864 -976 0
v -880 -976 0
v -880 -960 0
v -864 -960 0
v -880 -976 0
v -896 -976 0
v -896 -960 0
v -880 -960 0
v -896 -976 0
v -912 -976 0
v -912 -960 0
v -896 -960 0
v -912 -976 0
v -928 -976 0
v -928 -960 0
v -912 -960 0
v -928 -976 0
v -944 -976 0
v -944 -960 0
v -928 -960 0
v -944 -976 0
v -960 -976 0
v -960 -960 0
v -944 -960 0
v -960 -976 0
v -976 -976 0
v -976 -960 0
v -960 -960 0
v -976 -976 0
v -992 -976 0
v -992 -960 0
v -976 -960 0
v -992 -976 0
v -1008 -976 0
v -1008 -960 0
v -992 -960 0
v -1008 -976 0
v -1024 -976 0
v -1024 -960 0
v -1008 -960 0
v -1024 -976 0
v -1040 -976 0
v -1040 -960 0
v -1024 -960 0
v -1168 -976 0
v -1184 -976 0
v -1184 -960 0
v -1168 -960 0
v -1184 -976 0
v -1200 -976 0
v -1200 -960 0
v -1184 -960 0
v -1200 -976 0
v -1216 -976 0
v -1216 -960 0
v -1200 -960 0
v -1216 -976 0
v -1232 -976 0
v -1232 -960 0
v -1216 -960 0
v -1232 -976 0
v -1248 -976 0
v -1248 -960 0
v -1232 -960 0
v -1248 -976 0
v -1264 -976 0
v -1264 -960 0
v -1248 -960 0
v -1264 -976 0
v -1280 -976 0
v -1280 -960 0
v -1264 -960 0
v -1280 -976 0
v -1296 -976 0
v -1296 -960 0
v -1280 -960 0
v -1296 -976 0
v -1312 -976 0
v -1312 -960 0
v -1296 -960 0
v -1312 -976 0
v -1328 -976 0
v -1328 -960 0
v -1312 -960 0
v -1328 -976 0
v -1344 -976 0
v -1344 -960 0
v -1328 -960 0
v -1344 -976 0
v -1360 -976 0
v -1360 -960 0
v -1344 -960 0
v -1360 -976 0
v -1376 -976 0
v -1376 -960 0
v -1360 -960 0
v -1440 -976 0
v -1456 -976 0
v -1456 -960 0
v -1440 -960 0
v -160 -992 0
v -176 -992 0
v -176 -976 0
v -160 -976 0

# Texture cooridinates (Count = 8)
vt 0.12 0.9130435
vt 0.16 0.9130435
vt 0.16 0.9565217
vt 0.12 0.9565217
vt 0.2 0.8260869
vt 0.24 0.8260869
vt 0.24 0.8695652
vt 0.2 0.8695652

# Normal
vn 0 0 -1

# Mesh description
g SunnyLandMap_mesh_0001

# Faces
f 1/1/1 2/2/1 3/3/1 4/4/1
f 5/1/1 6/2/1 7/3/1 8/4/1
f 9/1/1 10/2/1 11/3/1 12/4/1
f 13/1/1 14/2/1 15/3/1 16/4/1
f 17/1/1 18/2/1 19/3/1 20/4/1
f 21/1/1 22/2/1 23/3/1 24/4/1
f 25/1/1 26/2/1 27/3/1 28/4/1
f 29/1/1 30/2/1 31/3/1 32/4/1
f 33/1/1 34/2/1 35/3/1 36/4/1
f 37/1/1 38/2/1 39/3/1 40/4/1
f 41/1/1 42/2/1 43/3/1 44/4/1
f 45/1/1 46/2/1 47/3/1 48/4/1
f 49/1/1 50/2/1 51/3/1 52/4/1
f 53/5/1 54/6/1 55/7/1 56/8/1
f 57/5/1 58/6/1 59/7/1 60/8/1
f 61/5/1 62/6/1 63/7/1 64/8/1
f 65/5/1 66/6/1 67/7/1 68/8/1
f 69/5/1 70/6/1 71/7/1 72/8/1
f 73/5/1 74/6/1 75/7/1 76/8/1
f 77/5/1 78/6/1 79/7/1 80/8/1
f 81/1/1 82/2/1 83/3/1 84/4/1
f 85/1/1 86/2/1 87/3/1 88/4/1
f 89/1/1 90/2/1 91/3/1 92/4/1
f 93/1/1 94/2/1 95/3/1 96/4/1
f 97/1/1 98/2/1 99/3/1 100/4/1
f 101/1/1 102/2/1 103/3/1 104/4/1
f 105/1/1 106/2/1 107/3/1 108/4/1
f 109/1/1 110/2/1 111/3/1 112/4/1
f 113/5/1 114/6/1 115/7/1 116/8/1
f 117/1/1 118/2/1 119/3/1 120/4/1
f 121/1/1 122/2/1 123/3/1 124/4/1
f 125/1/1 126/2/1 127/3/1 128/4/1
f 129/1/1 130/2/1 131/3/1 132/4/1
f 133/1/1 134/2/1 135/3/1 136/4/1
f 137/1/1 138/2/1 139/3/1 140/4/1
f 141/1/1 142/2/1 143/3/1 144/4/1
f 145/1/1 146/2/1 147/3/1 148/4/1
f 149/1/1 150/2/1 151/3/1 152/4/1
f 153/1/1 154/2/1 155/3/1 156/4/1
f 157/1/1 158/2/1 159/3/1 160/4/1
f 161/1/1 162/2/1 163/3/1 164/4/1
f 165/5/1 166/6/1 167/7/1 168/8/1
f 169/5/1 170/6/1 171/7/1 172/8/1
f 173/5/1 174/6/1 175/7/1 176/8/1
f 177/1/1 178/2/1 179/3/1 180/4/1
f 181/1/1 182/2/1 183/3/1 184/4/1
f 185/1/1 186/2/1 187/3/1 188/4/1
f 189/1/1 190/2/1 191/3/1 192/4/1
f 193/5/1 194/6/1 195/7/1 196/8/1
f 197/5/1 198/6/1 199/7/1 200/8/1
f 201/5/1 202/6/1 203/7/1 204/8/1
f 205/5/1 206/6/1 207/7/1 208/8/1
f 209/5/1 210/6/1 211/7/1 212/8/1
f 213/5/1 214/6/1 215/7/1 216/8/1
f 217/5/1 218/6/1 219/7/1 220/8/1
f 221/5/1 222/6/1 223/7/1 224/8/1
f 225/1/1 226/2/1 227/3/1 228/4/1
f 229/1/1 230/2/1 231/3/1 232/4/1
f 233/5/1 234/6/1 235/7/1 236/8/1
f 237/5/1 238/6/1 239/7/1 240/8/1
f 241/1/1 242/2/1 243/3/1 244/4/1
f 245/1/1 246/2/1 247/3/1 248/4/1
f 249/1/1 250/2/1 251/3/1 252/4/1
f 253/1/1 254/2/1 255/3/1 256/4/1
f 257/1/1 258/2/1 259/3/1 260/4/1
f 261/5/1 262/6/1 263/7/1 264/8/1
f 265/5/1 266/6/1 267/7/1 268/8/1
f 269/1/1 270/2/1 271/3/1 272/4/1
f 273/1/1 274/2/1 275/3/1 276/4/1
f 277/1/1 278/2/1 279/3/1 280/4/1
f 281/1/1 282/2/1 283/3/1 284/4/1
f 285/1/1 286/2/1 287/3/1 288/4/1
f 289/1/1 290/2/1 291/3/1 292/4/1
f 293/5/1 294/6/1 295/7/1 296/8/1
f 297/5/1 298/6/1 299/7/1 300/8/1
f 301/1/1 302/2/1 303/3/1 304/4/1
f 305/1/1 306/2/1 307/3/1 308/4/1
f 309/1/1 310/2/1 311/3/1 312/4/1
f 313/1/1 314/2/1 315/3/1 316/4/1
f 317/1/1 318/2/1 319/3/1 320/4/1
f 321/1/1 322/2/1 323/3/1 324/4/1
f 325/1/1 326/2/1 327/3/1 328/4/1
f 329/1/1 330/2/1 331/3/1 332/4/1
f 333/1/1 334/2/1 335/3/1 336/4/1
f 337/1/1 338/2/1 339/3/1 340/4/1
f 341/5/1 342/6/1 343/7/1 344/8/1
f 345/1/1 346/2/1 347/3/1 348/4/1
f 349/1/1 350/2/1 351/3/1 352/4/1
f 353/1/1 354/2/1 355/3/1 356/4/1
f 357/5/1 358/6/1 359/7/1 360/8/1
f 361/5/1 362/6/1 363/7/1 364/8/1
f 365/5/1 366/6/1 367/7/1 368/8/1
f 369/5/1 370/6/1 371/7/1 372/8/1
f 373/1/1 374/2/1 375/3/1 376/4/1
f 377/1/1 378/2/1 379/3/1 380/4/1
f 381/1/1 382/2/1 383/3/1 384/4/1
f 385/1/1 386/2/1 387/3/1 388/4/1
f 389/1/1 390/2/1 391/3/1 392/4/1
f 393/5/1 394/6/1 395/7/1 396/8/1
f 397/1/1 398/2/1 399/3/1 400/4/1
f 401/1/1 402/2/1 403/3/1 404/4/1
f 405/1/1 406/2/1 407/3/1 408/4/1
f 409/1/1 410/2/1 411/3/1 412/4/1
f 413/1/1 414/2/1 415/3/1 416/4/1
f 417/1/1 418/2/1 419/3/1 420/4/1
f 421/1/1 422/2/1 423/3/1 424/4/1
f 425/1/1 426/2/1 427/3/1 428/4/1
f 429/1/1 430/2/1 431/3/1 432/4/1
f 433/1/1 434/2/1 435/3/1 436/4/1
f 437/1/1 438/2/1 439/3/1 440/4/1
f 441/5/1 442/6/1 443/7/1 444/8/1
f 445/1/1 446/2/1 447/3/1 448/4/1
f 449/1/1 450/2/1 451/3/1 452/4/1
f 453/1/1 454/2/1 455/3/1 456/4/1
f 457/1/1 458/2/1 459/3/1 460/4/1
f 461/1/1 462/2/1 463/3/1 464/4/1
f 465/1/1 466/2/1 467/3/1 468/4/1
f 469/1/1 470/2/1 471/3/1 472/4/1
f 473/1/1 474/2/1 475/3/1 476/4/1
f 477/1/1 478/2/1 479/3/1 480/4/1
f 481/5/1 482/6/1 483/7/1 484/8/1
f 485/1/1 486/2/1 487/3/1 488/4/1
f 489/1/1 490/2/1 491/3/1 492/4/1
f 493/1/1 494/2/1 495/3/1 496/4/1
f 497/1/1 498/2/1 499/3/1 500/4/1
f 501/1/1 502/2/1 503/3/1 504/4/1
f 505/1/1 506/2/1 507/3/1 508/4/1
f 509/1/1 510/2/1 511/3/1 512/4/1
f 513/1/1 514/2/1 515/3/1 516/4/1
f 517/1/1 518/2/1 519/3/1 520/4/1
f 521/1/1 522/2/1 523/3/1 524/4/1
f 525/1/1 526/2/1 527/3/1 528/4/1
f 529/1/1 530/2/1 531/3/1 532/4/1
f 533/1/1 534/2/1 535/3/1 536/4/1
f 537/1/1 538/2/1 539/3/1 540/4/1
f 541/1/1 542/2/1 543/3/1 544/4/1
f 545/1/1 546/2/1 547/3/1 548/4/1
f 549/1/1 550/2/1 551/3/1 552/4/1
f 553/1/1 554/2/1 555/3/1 556/4/1
f 557/1/1 558/2/1 559/3/1 560/4/1
f 561/1/1 562/2/1 563/3/1 564/4/1
f 565/1/1 566/2/1 567/3/1 568/4/1
f 569/1/1 570/2/1 571/3/1 572/4/1
f 573/1/1 574/2/1 575/3/1 576/4/1
f 577/1/1 578/2/1 579/3/1 580/4/1
f 581/1/1 582/2/1 583/3/1 584/4/1
f 585/1/1 586/2/1 587/3/1 588/4/1
f 589/1/1 590/2/1 591/3/1 592/4/1
f 593/1/1 594/2/1 595/3/1 596/4/1
f 597/5/1 598/6/1 599/7/1 600/8/1
f 601/1/1 602/2/1 603/3/1 604/4/1
f 605/1/1 606/2/1 607/3/1 608/4/1
f 609/1/1 610/2/1 611/3/1 612/4/1
f 613/1/1 614/2/1 615/3/1 616/4/1
f 617/1/1 618/2/1 619/3/1 620/4/1
f 621/1/1 622/2/1 623/3/1 624/4/1
f 625/1/1 626/2/1 627/3/1 628/4/1
f 629/1/1 630/2/1 631/3/1 632/4/1
f 633/1/1 634/2/1 635/3/1 636/4/1
f 637/1/1 638/2/1 639/3/1 640/4/1
f 641/1/1 642/2/1 643/3/1 644/4/1
f 645/1/1 646/2/1 647/3/1 648/4/1
f 649/1/1 650/2/1 651/3/1 652/4/1
f 653/1/1 654/2/1 655/3/1 656/4/1
f 657/1/1 658/2/1 659/3/1 660/4/1
f 661/1/1 662/2/1 663/3/1 664/4/1
f 665/1/1 666/2/1 667/3/1 668/4/1
f 669/1/1 670/2/1 671/3/1 672/4/1
f 673/1/1 674/2/1 675/3/1 676/4/1
f 677/1/1 678/2/1 679/3/1 680/4/1
f 681/1/1 682/2/1 683/3/1 684/4/1
f 685/1/1 686/2/1 687/3/1 688/4/1
f 689/1/1 690/2/1 691/3/1 692/4/1
f 693/1/1 694/2/1 695/3/1 696/4/1
f 697/1/1 698/2/1 699/3/1 700/4/1
f 701/1/1 702/2/1 703/3/1 704/4/1
f 705/1/1 706/2/1 707/3/1 708/4/1
f 709/1/1 710/2/1 711/3/1 712/4/1
f 713/1/1 714/2/1 715/3/1 716/4/1
f 717/1/1 718/2/1 719/3/1 720/4/1
f 721/1/1 722/2/1 723/3/1 724/4/1
f 725/1/1 726/2/1 727/3/1 728/4/1
f 729/1/1 730/2/1 731/3/1 732/4/1
f 733/1/1 734/2/1 735/3/1 736/4/1
f 737/1/1 738/2/1 739/3/1 740/4/1
f 741/1/1 742/2/1 743/3/1 744/4/1
f 745/1/1 746/2/1 747/3/1 748/4/1
f 749/1/1 750/2/1 751/3/1 752/4/1
f 753/1/1 754/2/1 755/3/1 756/4/1
f 757/1/1 758/2/1 759/3/1 760/4/1
f 761/1/1 762/2/1 763/3/1 764/4/1
f 765/1/1 766/2/1 767/3/1 768/4/1

